<svg height="48" width="48" xmlns="http://www.w3.org/2000/svg" xmlns:xlink="http://www.w3.org/1999/xlink"><linearGradient id="a"><stop offset="0" stop-color="#fff"/><stop offset=".00191483" stop-color="#fff" stop-opacity=".235294"/><stop offset=".98085731" stop-color="#fff" stop-opacity=".156863"/><stop offset="1" stop-color="#fff" stop-opacity=".392157"/></linearGradient><linearGradient id="b" gradientTransform="matrix(2.1778813 0 0 2.2404024 -.428343 -59.375892)" gradientUnits="userSpaceOnUse" x1="12" x2="12" y1="48" y2="28"><stop offset="0" stop-color="#e2e2e2"/><stop offset="1" stop-color="#fff"/></linearGradient><linearGradient id="c" gradientTransform="matrix(2.2946181 0 0 2.3604904 -1.718612 -64.435655)" gradientUnits="userSpaceOnUse" x1="17" x2="5.677083" y1="33" y2="40.411346"><stop offset="0" stop-color="#7e8087"/><stop offset="1" stop-color="#d4d4d4"/></linearGradient><linearGradient id="d" gradientUnits="userSpaceOnUse" x1="11.571072" x2="12.222424" xlink:href="#a" y1="17.375799" y2="20.828516"/><linearGradient id="e" gradientTransform="matrix(.92598815 -.37755256 .37755256 .92598815 7.341566 12.895941)" gradientUnits="userSpaceOnUse" x1="11.571072" x2="12.222424" xlink:href="#a" y1="17.375799" y2="20.828516"/><radialGradient id="f" cx="99.189415" cy="185.29727" fx="75.253609" fy="166.53235" gradientTransform="matrix(.37123296 .00000005 -.00000002 .07908466 -6.614082 45.105366)" gradientUnits="userSpaceOnUse" r="62.769119"><stop offset="0"/><stop offset="1" stop-opacity="0"/></radialGradient><path d="m53.51026 59.760628a23.301967 4.9630619 0 1 1 -46.6039332 0 23.301967 4.9630619 0 1 1 46.6039332 0z" fill="url(#f)" opacity=".2" transform="matrix(.96994356 -.01535571 .0047468 1.4776886 -6.046066 -50.482475)"/><path d="m11 36 5.976782-7.777285 17.649177-2.329952-22.405011 10.278657z" fill="#abacae"/><path d="m44.728609 9.2629047-41.3718858 8.8716773 7.6432768 6.080178v11.78524l5.747011-7.470453.380774-.240411.362764.1175 10.507338 7.826522z" fill="url(#b)"/><path d="m44.728609 9.2629048-27.600824 19.0262312-.380774.240411-5.747011 7.470453v-11.670054z" fill="url(#c)" opacity=".61"/><g fill="none"><path d="m4.40625 18.3125 6.6875 5.375 29.09375-12.90625z" stroke="url(#d)" stroke-linecap="square"/><path d="m18.241883 28.189508 9.659391 7.202304 15.06768-24.279205z" stroke="url(#e)" stroke-linecap="square"/><path d="m11.5 24.311003v10.428064" stroke="#fafafa" stroke-opacity=".117647"/><path d="m10.50304 37.500098 11.682435-5.343709m23.617438-23.6564122-43.6058361 9.3746622 8.3059631 6.571027v13.054432l6.68354-8.673751 10.986639 8.148069z" opacity=".5" stroke="#555761" stroke-linejoin="round"/></g></svg>